<?xml version="1.0" standalone="no"?>
<!DOCTYPE svg PUBLIC "-//W3C//DTD SVG 20010904//EN"
 "http://www.w3.org/TR/2001/REC-SVG-20010904/DTD/svg10.dtd">
<svg version="1.0" xmlns="http://www.w3.org/2000/svg"
 width="96.000000pt" height="96.000000pt" viewBox="0 0 96.000000 96.000000"
 preserveAspectRatio="xMidYMid meet">

<g transform="translate(0.000000,96.000000) scale(0.100000,-0.100000)"
fill="#000000" stroke="none">
<path fill="#A94F4F" d="M427 829 c-61 -9 -126 -48 -171 -101 -20 -23 -36 -45 -36 -49 0 -3
-17 -9 -38 -13 -47 -7 -112 -53 -140 -98 -92 -149 -2 -336 175 -363 39 -6 42
-5 67 32 l26 38 -68 6 c-107 8 -162 62 -162 159 0 86 47 141 138 160 41 9 52
17 62 39 29 70 114 121 202 121 105 -1 185 -64 215 -170 15 -57 18 -60 52 -66
92 -15 131 -50 131 -120 0 -43 1 -44 34 -44 41 0 48 18 34 86 -13 62 -80 131
-136 140 -35 5 -39 10 -56 56 -46 130 -185 209 -329 187z"/>
<path fill="#A94F4F" d="M443 314 l-73 -109 55 -3 54 -3 3 -71 3 -71 72 109 73 109 -55 3 -54
3 -3 71 -3 71 -72 -109z"/>
<path fill="#A94F4F" d="M723 314 l-73 -109 55 -3 54 -3 3 -71 3 -71 72 109 73 109 -55 3 -54
3 -3 71 -3 71 -72 -109z"/>
</g>
</svg>
