<svg width="26" height="26" viewBox="0 0 26 26" fill="none" xmlns="http://www.w3.org/2000/svg">
<path d="M20.5834 9.74999C20.5834 5.56182 17.1882 2.16666 13.0001 2.16666C8.81191 2.16666 5.41675 5.56182 5.41675 9.74999C5.41675 11.2526 5.86091 12.6501 6.61383 13.8287H6.60516C9.16183 17.8317 13.0001 23.8333 13.0001 23.8333L19.395 13.8287H19.3874C20.1392 12.6501 20.5834 11.2526 20.5834 9.74999ZM13.0001 13C11.205 13 9.75008 11.5451 9.75008 9.74999C9.75008 7.95491 11.205 6.49999 13.0001 6.49999C14.7952 6.49999 16.2501 7.95491 16.2501 9.74999C16.2501 11.5451 14.7952 13 13.0001 13Z" fill="#575757"/>
</svg>
